<svg width="290" height="30" viewBox="0 0 290 30" fill="none" xmlns="http://www.w3.org/2000/svg">
<path d="M279.157 29.52C277.184 29.52 275.437 29.0933 273.917 28.24C272.424 27.36 271.251 26.1067 270.397 24.48C269.571 22.8533 269.157 20.88 269.157 18.56C269.157 16.16 269.597 14.1733 270.477 12.6C271.384 11 272.584 9.8 274.077 9C275.571 8.2 277.237 7.8 279.077 7.8C280.997 7.8 282.704 8.22667 284.197 9.08C285.717 9.90667 286.917 11.1333 287.797 12.76C288.677 14.36 289.117 16.3467 289.117 18.72C289.117 21.0933 288.677 23.08 287.797 24.68C286.944 26.28 285.757 27.4933 284.237 28.32C282.744 29.12 281.051 29.52 279.157 29.52ZM279.317 26.52C280.597 26.52 281.691 26.2133 282.597 25.6C283.531 24.96 284.237 24.0667 284.717 22.92C285.224 21.7733 285.477 20.4133 285.477 18.84C285.477 17.2133 285.211 15.8133 284.677 14.64C284.171 13.44 283.437 12.52 282.477 11.88C281.517 11.2133 280.357 10.88 278.997 10.88C277.744 10.88 276.651 11.1733 275.717 11.76C274.811 12.3467 274.104 13.2133 273.597 14.36C273.091 15.48 272.837 16.8533 272.837 18.48C272.837 20.9867 273.411 22.96 274.557 24.4C275.731 25.8133 277.317 26.52 279.317 26.52Z" fill="white"/>
<path d="M246.449 29V16.16V8.32H249.729L249.369 14.88H250.049C250.423 13.2533 250.916 11.92 251.529 10.88C252.169 9.84 252.969 9.06667 253.929 8.56C254.889 8.05333 256.009 7.8 257.289 7.8C259.583 7.8 261.316 8.62667 262.489 10.28C263.689 11.9067 264.289 14.3467 264.289 17.6V29H260.609V17.92C260.609 15.5733 260.236 13.84 259.489 12.72C258.769 11.6 257.703 11.04 256.289 11.04C255.009 11.04 253.916 11.44 253.009 12.24C252.129 13.04 251.436 14.0933 250.929 15.4C250.423 16.7067 250.143 18.12 250.089 19.64V29H246.449Z" fill="white"/>
<path d="M232.751 29.52C231.124 29.52 229.684 29.28 228.431 28.8C227.204 28.2933 226.164 27.5733 225.311 26.64C224.458 25.7067 223.818 24.6 223.391 23.32C222.964 22.04 222.751 20.6 222.751 19C222.751 17.3733 222.964 15.88 223.391 14.52C223.818 13.16 224.444 11.9733 225.271 10.96C226.098 9.94667 227.111 9.17334 228.311 8.64C229.511 8.08 230.884 7.8 232.431 7.8C233.791 7.8 235.031 8.02667 236.151 8.48C237.271 8.93334 238.218 9.64 238.991 10.6C239.791 11.5333 240.391 12.72 240.791 14.16C241.191 15.5733 241.351 17.24 241.271 19.16L225.031 19.28V16.8L239.071 16.68L237.831 18.36C237.964 16.68 237.804 15.2933 237.351 14.2C236.898 13.1067 236.244 12.28 235.391 11.72C234.564 11.16 233.578 10.88 232.431 10.88C231.204 10.88 230.124 11.2 229.191 11.84C228.258 12.48 227.538 13.4 227.031 14.6C226.551 15.8 226.311 17.2533 226.311 18.96C226.311 21.4133 226.858 23.2933 227.951 24.6C229.044 25.88 230.658 26.52 232.791 26.52C233.644 26.52 234.378 26.4267 234.991 26.24C235.631 26.0267 236.164 25.7467 236.591 25.4C237.044 25.0267 237.404 24.6 237.671 24.12C237.964 23.64 238.191 23.12 238.351 22.56L241.551 23.32C241.311 24.28 240.938 25.1467 240.431 25.92C239.951 26.6667 239.338 27.3067 238.591 27.84C237.871 28.3733 237.031 28.7867 236.071 29.08C235.111 29.3733 234.004 29.52 232.751 29.52Z" fill="white"/>
<path d="M208.246 29V17.8V8.32H211.526L211.206 15.52H211.886C212.126 13.9467 212.499 12.5867 213.006 11.44C213.513 10.2933 214.179 9.4 215.006 8.76C215.859 8.12 216.913 7.8 218.166 7.8C218.433 7.8 218.739 7.82667 219.086 7.88C219.433 7.90667 219.833 8 220.286 8.16L220.086 11.96C219.686 11.8 219.286 11.6933 218.886 11.64C218.486 11.56 218.099 11.52 217.726 11.52C216.686 11.52 215.779 11.8533 215.006 12.52C214.259 13.1867 213.633 14.0933 213.126 15.24C212.619 16.36 212.206 17.6267 211.886 19.04V29H208.246Z" fill="white"/>
<path d="M193.103 29.52C191.129 29.52 189.383 29.0933 187.863 28.24C186.369 27.36 185.196 26.1067 184.343 24.48C183.516 22.8533 183.103 20.88 183.103 18.56C183.103 16.16 183.543 14.1733 184.423 12.6C185.329 11 186.529 9.8 188.023 9C189.516 8.2 191.183 7.8 193.023 7.8C194.943 7.8 196.649 8.22667 198.143 9.08C199.663 9.90667 200.863 11.1333 201.743 12.76C202.623 14.36 203.063 16.3467 203.063 18.72C203.063 21.0933 202.623 23.08 201.743 24.68C200.889 26.28 199.703 27.4933 198.183 28.32C196.689 29.12 194.996 29.52 193.103 29.52ZM193.263 26.52C194.543 26.52 195.636 26.2133 196.543 25.6C197.476 24.96 198.183 24.0667 198.663 22.92C199.169 21.7733 199.423 20.4133 199.423 18.84C199.423 17.2133 199.156 15.8133 198.623 14.64C198.116 13.44 197.383 12.52 196.423 11.88C195.463 11.2133 194.303 10.88 192.943 10.88C191.689 10.88 190.596 11.1733 189.663 11.76C188.756 12.3467 188.049 13.2133 187.543 14.36C187.036 15.48 186.783 16.8533 186.783 18.48C186.783 20.9867 187.356 22.96 188.503 24.4C189.676 25.8133 191.263 26.52 193.263 26.52Z" fill="white"/>
<path d="M148.8 29V2.6H154.48L163.24 25.16H163.44L172.16 2.6H177.64V29H174.16L174.4 6.32H174.08L165 29H161.4L152.4 6.28H152.08L152.32 29H148.8Z" fill="white"/>
<path d="M120.897 29.52C119.777 29.52 118.764 29.3067 117.857 28.88C116.951 28.4267 116.231 27.7733 115.697 26.92C115.164 26.04 114.897 24.9333 114.897 23.6C114.897 22.6133 115.071 21.7467 115.417 21C115.791 20.2533 116.351 19.6133 117.097 19.08C117.871 18.5467 118.857 18.1067 120.057 17.76C121.257 17.4133 122.724 17.12 124.457 16.88C125.444 16.7467 126.244 16.6133 126.857 16.48C127.497 16.3467 127.964 16.1333 128.257 15.84C128.551 15.52 128.697 15.0533 128.697 14.44C128.697 13.4267 128.351 12.5733 127.657 11.88C126.964 11.1867 125.871 10.84 124.377 10.84C123.604 10.84 122.817 10.9733 122.017 11.24C121.217 11.5067 120.511 11.96 119.897 12.6C119.311 13.2133 118.937 14.08 118.777 15.2L115.417 14.08C115.631 13.12 115.977 12.2533 116.457 11.48C116.964 10.7067 117.604 10.0533 118.377 9.52C119.151 8.96 120.044 8.53334 121.057 8.24C122.097 7.94667 123.244 7.8 124.497 7.8C126.231 7.8 127.671 8.09334 128.817 8.68C129.991 9.26667 130.857 10.1733 131.417 11.4C132.004 12.6 132.297 14.1467 132.297 16.04V20.64C132.297 21.4667 132.311 22.3733 132.337 23.36C132.391 24.32 132.457 25.2933 132.537 26.28C132.617 27.24 132.697 28.1467 132.777 29H129.417C129.337 28.1467 129.257 27.2933 129.177 26.44C129.124 25.5867 129.084 24.7333 129.057 23.88H128.537C128.137 24.8667 127.604 25.7867 126.937 26.64C126.271 27.4933 125.431 28.1867 124.417 28.72C123.431 29.2533 122.257 29.52 120.897 29.52ZM121.977 26.56C122.564 26.56 123.151 26.4667 123.737 26.28C124.351 26.0933 124.951 25.7867 125.537 25.36C126.151 24.9333 126.724 24.3867 127.257 23.72C127.817 23.0533 128.311 22.2533 128.737 21.32V17.32L129.777 17.52C129.351 17.9467 128.777 18.2667 128.057 18.48C127.364 18.6933 126.591 18.8667 125.737 19C124.884 19.1333 124.031 19.28 123.177 19.44C122.324 19.5733 121.537 19.7867 120.817 20.08C120.124 20.3467 119.564 20.7333 119.137 21.24C118.711 21.7467 118.497 22.44 118.497 23.32C118.497 24.3867 118.817 25.2 119.457 25.76C120.097 26.2933 120.937 26.56 121.977 26.56Z" fill="white"/>
<path d="M106.215 29V1H109.855V29H106.215Z" fill="white"/>
<path d="M92.5166 29.52C90.8899 29.52 89.4499 29.28 88.1966 28.8C86.9699 28.2933 85.9299 27.5733 85.0766 26.64C84.2233 25.7067 83.5833 24.6 83.1566 23.32C82.7299 22.04 82.5166 20.6 82.5166 19C82.5166 17.3733 82.7299 15.88 83.1566 14.52C83.5833 13.16 84.2099 11.9733 85.0366 10.96C85.8633 9.94667 86.8766 9.17334 88.0766 8.64C89.2766 8.08 90.6499 7.8 92.1966 7.8C93.5566 7.8 94.7966 8.02667 95.9166 8.48C97.0366 8.93334 97.9833 9.64 98.7566 10.6C99.5566 11.5333 100.157 12.72 100.557 14.16C100.957 15.5733 101.117 17.24 101.037 19.16L84.7966 19.28V16.8L98.8366 16.68L97.5966 18.36C97.7299 16.68 97.5699 15.2933 97.1166 14.2C96.6633 13.1067 96.0099 12.28 95.1566 11.72C94.3299 11.16 93.3433 10.88 92.1966 10.88C90.9699 10.88 89.8899 11.2 88.9566 11.84C88.0233 12.48 87.3033 13.4 86.7966 14.6C86.3166 15.8 86.0766 17.2533 86.0766 18.96C86.0766 21.4133 86.6233 23.2933 87.7166 24.6C88.8099 25.88 90.4233 26.52 92.5566 26.52C93.4099 26.52 94.1433 26.4267 94.7566 26.24C95.3966 26.0267 95.9299 25.7467 96.3566 25.4C96.8099 25.0267 97.1699 24.6 97.4366 24.12C97.7299 23.64 97.9566 23.12 98.1166 22.56L101.317 23.32C101.077 24.28 100.703 25.1467 100.197 25.92C99.7166 26.6667 99.1033 27.3067 98.3566 27.84C97.6366 28.3733 96.7966 28.7867 95.8366 29.08C94.8766 29.3733 93.7699 29.52 92.5166 29.52Z" fill="white"/>
<path d="M73.677 29V8.32H77.317V29H73.677ZM75.517 4.72C74.6637 4.72 74.0237 4.54666 73.597 4.2C73.1704 3.85333 72.957 3.33333 72.957 2.64C72.957 1.94666 73.1704 1.42666 73.597 1.08C74.0237 0.733331 74.6504 0.559998 75.477 0.559998C76.3304 0.559998 76.9704 0.733331 77.397 1.08C77.8237 1.42666 78.037 1.94666 78.037 2.64C78.037 3.30666 77.8237 3.82666 77.397 4.2C76.9704 4.54666 76.3437 4.72 75.517 4.72Z" fill="white"/>
<path d="M49.8086 29V16.16V8.32H53.0886L52.7286 14.88H53.4086C53.7819 13.2533 54.2753 11.92 54.8886 10.88C55.5286 9.84 56.3286 9.06667 57.2886 8.56C58.2486 8.05333 59.3686 7.8 60.6486 7.8C62.9419 7.8 64.6753 8.62667 65.8486 10.28C67.0486 11.9067 67.6486 14.3467 67.6486 17.6V29H63.9686V17.92C63.9686 15.5733 63.5953 13.84 62.8486 12.72C62.1286 11.6 61.0619 11.04 59.6486 11.04C58.3686 11.04 57.2753 11.44 56.3686 12.24C55.4886 13.04 54.7953 14.0933 54.2886 15.4C53.7819 16.7067 53.5019 18.12 53.4486 19.64V29H49.8086Z" fill="white"/>
<path d="M32.3037 29.52C31.1837 29.52 30.1704 29.3067 29.2637 28.88C28.357 28.4267 27.637 27.7733 27.1037 26.92C26.5704 26.04 26.3037 24.9333 26.3037 23.6C26.3037 22.6133 26.477 21.7467 26.8237 21C27.197 20.2533 27.757 19.6133 28.5037 19.08C29.277 18.5467 30.2637 18.1067 31.4637 17.76C32.6637 17.4133 34.1304 17.12 35.8637 16.88C36.8504 16.7467 37.6504 16.6133 38.2637 16.48C38.9037 16.3467 39.3704 16.1333 39.6637 15.84C39.957 15.52 40.1037 15.0533 40.1037 14.44C40.1037 13.4267 39.757 12.5733 39.0637 11.88C38.3704 11.1867 37.277 10.84 35.7837 10.84C35.0104 10.84 34.2237 10.9733 33.4237 11.24C32.6237 11.5067 31.917 11.96 31.3037 12.6C30.717 13.2133 30.3437 14.08 30.1837 15.2L26.8237 14.08C27.037 13.12 27.3837 12.2533 27.8637 11.48C28.3704 10.7067 29.0104 10.0533 29.7837 9.52C30.557 8.96 31.4504 8.53334 32.4637 8.24C33.5037 7.94667 34.6504 7.8 35.9037 7.8C37.637 7.8 39.077 8.09334 40.2237 8.68C41.397 9.26667 42.2637 10.1733 42.8237 11.4C43.4104 12.6 43.7037 14.1467 43.7037 16.04V20.64C43.7037 21.4667 43.717 22.3733 43.7437 23.36C43.797 24.32 43.8637 25.2933 43.9437 26.28C44.0237 27.24 44.1037 28.1467 44.1837 29H40.8237C40.7437 28.1467 40.6637 27.2933 40.5837 26.44C40.5304 25.5867 40.4904 24.7333 40.4637 23.88H39.9437C39.5437 24.8667 39.0104 25.7867 38.3437 26.64C37.677 27.4933 36.837 28.1867 35.8237 28.72C34.837 29.2533 33.6637 29.52 32.3037 29.52ZM33.3837 26.56C33.9704 26.56 34.557 26.4667 35.1437 26.28C35.757 26.0933 36.357 25.7867 36.9437 25.36C37.557 24.9333 38.1304 24.3867 38.6637 23.72C39.2237 23.0533 39.717 22.2533 40.1437 21.32V17.32L41.1837 17.52C40.757 17.9467 40.1837 18.2667 39.4637 18.48C38.7704 18.6933 37.997 18.8667 37.1437 19C36.2904 19.1333 35.437 19.28 34.5837 19.44C33.7304 19.5733 32.9437 19.7867 32.2237 20.08C31.5304 20.3467 30.9704 20.7333 30.5437 21.24C30.117 21.7467 29.9037 22.44 29.9037 23.32C29.9037 24.3867 30.2237 25.2 30.8637 25.76C31.5037 26.2933 32.3437 26.56 33.3837 26.56Z" fill="white"/>
<path d="M2.40043 29V25.84H10.2004C12.0138 25.84 13.5071 25.4267 14.6804 24.6C15.8538 23.7467 16.7204 22.5733 17.2804 21.08C17.8671 19.5867 18.1604 17.8533 18.1604 15.88C18.1604 14.1467 17.9738 12.64 17.6004 11.36C17.2538 10.08 16.7071 9.04 15.9604 8.24C15.2138 7.41333 14.2671 6.8 13.1204 6.4C12.0004 5.97333 10.6671 5.76 9.12043 5.76H2.40043V2.6H9.04043C12.0271 2.6 14.4671 3.12 16.3604 4.16C18.2538 5.2 19.6538 6.69333 20.5604 8.64C21.4671 10.5867 21.9204 12.9067 21.9204 15.6C21.9204 17.3867 21.7204 19 21.3204 20.44C20.9471 21.88 20.4004 23.1333 19.6804 24.2C18.9871 25.2667 18.1604 26.16 17.2004 26.88C16.2404 27.5733 15.1738 28.1067 14.0004 28.48C12.8271 28.8267 11.6004 29 10.3204 29H2.40043ZM0.44043 29V2.6H4.12043V29H0.44043Z" fill="white"/>
</svg>
